<svg width="104" height="38" viewBox="0 0 104 38" fill="none" xmlns="http://www.w3.org/2000/svg">
<g clip-path="url(#clip0_435_139)">
<rect width="104" height="38" rx="19" fill="url(#paint0_linear_435_139)"/>
<path d="M28.7817 20.6816C27.3022 21.7119 26.5625 22.73 26.5625 23.7358C26.5625 24.1606 26.7017 24.5317 26.98 24.8491C27.2632 25.1714 27.6489 25.4229 28.1372 25.6035C28.6304 25.7842 29.187 25.8745 29.8071 25.8745C30.6226 25.8745 31.4136 25.7402 32.1802 25.4717L32.6929 26.856C32.2388 27.0073 31.7627 27.1294 31.2646 27.2222C30.7715 27.3198 30.2783 27.3687 29.7852 27.3687C28.916 27.3687 28.1396 27.2295 27.4561 26.9512C26.7725 26.6777 26.2354 26.2749 25.8447 25.7427C25.4541 25.2153 25.2588 24.5708 25.2588 23.8091C25.2588 23.0376 25.4834 22.3149 25.9326 21.6411C26.3818 20.9624 27.0044 20.3276 27.8003 19.7368L25.4932 17.3711L25.5811 16.5288C25.8057 16.2603 26.0962 16.0137 26.4526 15.7891C26.814 15.5596 27.207 15.3765 27.6318 15.2397C28.0615 15.0981 28.4888 15.0273 28.9136 15.0273C29.4214 15.0273 29.8877 15.1079 30.3125 15.269C30.7422 15.4302 31.0864 15.6694 31.3452 15.9868C31.604 16.2993 31.7334 16.6899 31.7334 17.1587C31.7334 17.481 31.6406 17.791 31.4551 18.0889C31.2695 18.3867 31.04 18.6675 30.7666 18.9312C30.498 19.1948 30.2368 19.439 29.9829 19.6636C30.3882 19.9565 30.8179 20.1714 31.272 20.3081C31.7261 20.4399 32.3291 20.5059 33.0811 20.5059H33.0884V22H33.0811C32.373 22 31.7676 21.9512 31.2646 21.8535C30.7617 21.7559 30.3149 21.6094 29.9243 21.4141C29.5337 21.2188 29.1528 20.9746 28.7817 20.6816ZM28.8477 19.0703C29.0967 18.8945 29.353 18.7065 29.6167 18.5063C29.8853 18.3013 30.1123 18.0962 30.2979 17.8911C30.4834 17.6812 30.5762 17.481 30.5762 17.2905C30.5762 17.105 30.4932 16.9438 30.3271 16.8071C30.1611 16.6655 29.9487 16.5557 29.6899 16.4775C29.4312 16.3994 29.165 16.3604 28.8916 16.3604C28.5059 16.3604 28.1396 16.4312 27.793 16.5728C27.4512 16.7144 27.1777 16.9048 26.9727 17.144L28.8477 19.0703ZM37.7832 16.0454C37.9834 16.6411 38.1372 17.2197 38.2446 17.7812C38.3521 18.3379 38.4058 18.8335 38.4058 19.2681C38.4058 20.2202 38.1274 20.9136 37.5708 21.3481C37.0142 21.7827 36.1523 22 34.9854 22H33.0811C32.9297 22 32.854 21.7534 32.854 21.2603C32.854 20.7573 32.9297 20.5059 33.0811 20.5059H34.9854C35.8008 20.5059 36.355 20.4106 36.6479 20.2202C36.9409 20.0298 37.0874 19.6978 37.0874 19.2241C37.0874 18.936 37.0361 18.5503 36.9336 18.0669C36.8359 17.5786 36.7017 17.0708 36.5308 16.5435L37.7832 16.0454ZM33.5059 25.0688V23.9922H37.2925V25.0688H33.5059ZM42.9834 16.9609L43.5986 19.1509C43.7695 19.6489 44.0332 20.0005 44.3896 20.2056C44.751 20.4058 45.2856 20.5059 45.9937 20.5059H46.001V22H45.9937C45.4761 22 45.0195 21.9292 44.624 21.7876C44.2334 21.646 43.9355 21.4458 43.7305 21.187C43.7451 21.8999 43.6304 22.5322 43.3862 23.084C43.147 23.6357 42.7344 24.1606 42.1484 24.6587C41.5674 25.1567 40.7739 25.6841 39.7681 26.2407L38.999 24.981C39.8926 24.4731 40.5981 24.0142 41.1157 23.604C41.6382 23.1987 42.0093 22.7959 42.229 22.3955C42.4487 21.9951 42.5586 21.5532 42.5586 21.0698C42.5586 20.8501 42.5415 20.6157 42.5073 20.3667C42.4731 20.1177 42.4072 19.8149 42.3096 19.4585L41.7383 17.4297L42.9834 16.9609ZM56.1377 16.6387C56.416 17.6396 56.5552 18.5015 56.5552 19.2241C56.5552 20.1079 56.3574 20.7988 55.9619 21.2969C55.5713 21.7949 55.0342 22.0439 54.3506 22.0439C53.8525 22.0439 53.4448 21.9097 53.1274 21.6411C52.8149 21.3677 52.5903 20.9795 52.4536 20.4766C52.2876 20.9355 52.0483 21.3115 51.7358 21.6045C51.4282 21.8975 51.0132 22.0439 50.4907 22.0439C49.9731 22.0439 49.5776 21.8853 49.3042 21.5679C49.0356 21.2505 48.8403 20.8379 48.7183 20.3301C48.4692 20.916 48.1348 21.3408 47.7148 21.6045C47.2998 21.8682 46.7285 22 46.001 22C45.8496 22 45.7739 21.751 45.7739 21.2529C45.7739 20.7549 45.8496 20.5059 46.001 20.5059C46.499 20.5059 46.8945 20.4351 47.1875 20.2935C47.4854 20.1519 47.71 19.9004 47.8613 19.5391C48.0176 19.1777 48.1323 18.6699 48.2056 18.0156L48.2788 17.3125L49.4873 17.4224C49.4482 17.7593 49.4165 18.0645 49.3921 18.3379C49.3677 18.6064 49.3555 18.8262 49.3555 18.9971C49.3555 19.5537 49.4482 19.9517 49.6338 20.1909C49.8193 20.4302 50.0977 20.5498 50.4688 20.5498C50.8838 20.5498 51.1987 20.3862 51.4136 20.0591C51.6284 19.7319 51.7749 19.1338 51.853 18.2646L51.9336 17.5029L53.1055 17.6201C53.0713 17.8789 53.042 18.1328 53.0176 18.3818C52.998 18.626 52.9883 18.8237 52.9883 18.9751C52.9883 19.5366 53.0859 19.9395 53.2812 20.1836C53.4766 20.4277 53.7744 20.5498 54.1748 20.5498C54.9365 20.5498 55.3174 20.1641 55.3174 19.3926C55.3174 18.8115 55.1611 18.0107 54.8486 16.9902L56.1377 16.6387ZM65.9082 20.5059H66.5601V22H65.7617C65.5029 22.9033 64.9731 23.7041 64.1724 24.4023C63.3716 25.1055 62.2998 25.7207 60.957 26.248L60.4077 24.8784C61.4722 24.4634 62.3389 24.0093 63.0078 23.5161C63.6768 23.0229 64.1382 22.5176 64.3921 22H63.2861C62.4756 22 61.853 21.8096 61.4185 21.4287C60.9888 21.043 60.7739 20.4595 60.7739 19.6782C60.7739 19.2046 60.8374 18.7432 60.9644 18.2939C61.0913 17.8447 61.2671 17.4395 61.4917 17.0781C61.7163 16.7168 61.9751 16.4312 62.2681 16.2212C62.561 16.0063 62.876 15.8989 63.2129 15.8989C63.6035 15.8989 63.9624 16.0283 64.2896 16.2871C64.6167 16.5459 64.9023 16.895 65.1465 17.3345C65.3906 17.769 65.5786 18.2622 65.7104 18.814C65.8423 19.3608 65.9082 19.9248 65.9082 20.5059ZM64.729 20.5059C64.7388 19.9736 64.6655 19.4707 64.5093 18.9971C64.353 18.5234 64.1504 18.1377 63.9014 17.8398C63.6572 17.542 63.4009 17.3931 63.1323 17.3931C62.9272 17.3931 62.7271 17.4907 62.5317 17.686C62.3413 17.8765 62.1826 18.1279 62.0557 18.4404C61.9336 18.748 61.8726 19.0825 61.8726 19.4438C61.8726 19.8149 61.9873 20.0859 62.2168 20.2568C62.4463 20.4229 62.8418 20.5059 63.4033 20.5059H64.729ZM70.2734 17.1514L70.3467 18.2354C70.3857 19.0459 70.5469 19.627 70.8301 19.9785C71.1133 20.3301 71.5601 20.5059 72.1704 20.5059H72.1777V22H72.1704C71.4917 22 70.9375 21.8413 70.5078 21.5239C70.083 21.2017 69.8071 20.7231 69.6802 20.0884C69.5239 20.7524 69.1919 21.2383 68.6841 21.5459C68.1763 21.8486 67.4707 22 66.5674 22C66.416 22 66.3403 21.751 66.3403 21.2529C66.3403 20.7549 66.416 20.5059 66.5674 20.5059C67.5146 20.5059 68.1689 20.3447 68.5303 20.0225C68.8916 19.6953 69.0552 19.1143 69.021 18.2793L68.9697 17.2466L70.2734 17.1514ZM67.9297 15.2471V13.8555H69.3213V15.2471H67.9297ZM74.3237 20.667C74.0942 21.0381 73.811 21.353 73.4741 21.6118C73.1421 21.8706 72.71 22 72.1777 22C72.0898 22 72.0312 21.9316 72.002 21.7949C71.9678 21.6533 71.9507 21.4727 71.9507 21.2529C71.9507 21.0381 71.9678 20.8599 72.002 20.7183C72.0361 20.5767 72.0947 20.5059 72.1777 20.5059C72.5439 20.5059 72.8516 20.4082 73.1006 20.2129C73.3545 20.0127 73.5693 19.7612 73.7451 19.4585C73.9209 19.1509 74.082 18.8359 74.2285 18.5137C74.3994 18.1279 74.5898 17.7495 74.7998 17.3784C75.0146 17.0073 75.2808 16.6997 75.5981 16.4556C75.9204 16.2114 76.3208 16.0894 76.7993 16.0894C77.312 16.0894 77.7563 16.248 78.1323 16.5654C78.5132 16.8828 78.8062 17.293 79.0112 17.7959C79.2212 18.2988 79.3262 18.8286 79.3262 19.3853C79.3262 19.9712 79.2188 20.4644 79.0039 20.8647C78.7891 21.2603 78.5034 21.5605 78.147 21.7656C77.7905 21.9707 77.395 22.0732 76.9604 22.0732C76.4136 22.0732 75.918 21.939 75.4736 21.6704C75.0293 21.4019 74.646 21.0674 74.3237 20.667ZM75.0781 19.5244C75.3369 19.8613 75.6299 20.125 75.957 20.3154C76.2842 20.501 76.626 20.5938 76.9824 20.5938C77.3389 20.5938 77.6343 20.4912 77.8687 20.2861C78.1079 20.0762 78.2275 19.7686 78.2275 19.3633C78.2275 19.0312 78.1641 18.731 78.0371 18.4624C77.9102 18.189 77.7417 17.9717 77.5317 17.8105C77.3218 17.6494 77.0923 17.5688 76.8433 17.5688C76.4819 17.5688 76.189 17.7007 75.9644 17.9644C75.7446 18.2231 75.542 18.5503 75.3564 18.9458C75.3076 19.0532 75.2588 19.1558 75.21 19.2534C75.1611 19.3511 75.1172 19.4414 75.0781 19.5244Z" fill="white"/>
<path d="M-17.5 -6H-41L-15 44.5H10.5L-17.5 -6Z" fill="white" fill-opacity="0.15"/>
</g>
<rect x="0.5" y="0.5" width="103" height="37" rx="18.5" stroke="url(#paint1_linear_435_139)"/>
<defs>
<linearGradient id="paint0_linear_435_139" x1="0" y1="19" x2="104" y2="19" gradientUnits="userSpaceOnUse">
<stop stop-color="#458CCD"/>
<stop offset="1" stop-color="#4250C2"/>
</linearGradient>
<linearGradient id="paint1_linear_435_139" x1="-37.5" y1="-12" x2="129" y2="42.5" gradientUnits="userSpaceOnUse">
<stop offset="0.0871301" stop-color="white"/>
<stop offset="0.534975" stop-color="white" stop-opacity="0"/>
<stop offset="0.915986" stop-color="white"/>
</linearGradient>
<clipPath id="clip0_435_139">
<rect width="104" height="38" rx="19" fill="white"/>
</clipPath>
</defs>
</svg>
