<svg width="60" height="60" viewBox="0 0 60 60" fill="none" xmlns="http://www.w3.org/2000/svg">
<path d="M60 30C60 46.5685 46.5685 60 30 60C13.4315 60 0 46.5685 0 30C0 13.4315 13.4315 0 30 0C46.5685 0 60 13.4315 60 30Z" fill="url(#paint0_linear_435_343)"/>
<path d="M42.038 29.8902C42.0351 30.3618 41.9054 30.8268 41.6582 31.2517C41.411 31.6766 41.0526 32.0507 40.6089 32.3468L29.2202 40.1227C28.5346 40.5771 27.7084 40.863 26.8359 40.9479C25.9634 41.0328 25.0795 40.9133 24.2851 40.6029C23.5947 40.3512 23.0065 39.9405 22.5907 39.4197C22.175 38.8989 21.9492 38.2902 21.9404 37.6662L21.9404 22.1143C21.9492 21.4903 22.175 20.8815 22.5907 20.3608C23.0065 19.84 23.5947 19.4293 24.2851 19.1776C25.0795 18.8672 25.9634 18.7477 26.8359 18.8326C27.7084 18.9175 28.5346 19.2034 29.2202 19.6578L40.6089 27.4337C41.0526 27.7298 41.411 28.1038 41.6582 28.5287C41.9054 28.9536 42.0351 29.4187 42.038 29.8902Z" fill="url(#paint1_linear_435_343)"/>
<defs>
<linearGradient id="paint0_linear_435_343" x1="8.28358" y1="53.0597" x2="66.4925" y2="-6.9403" gradientUnits="userSpaceOnUse">
<stop stop-color="white"/>
<stop offset="1" stop-color="#B9E2FF"/>
</linearGradient>
<linearGradient id="paint1_linear_435_343" x1="27.0002" y1="34" x2="42.0002" y2="19" gradientUnits="userSpaceOnUse">
<stop stop-color="#48D8F8" stop-opacity="0.54"/>
<stop offset="1" stop-color="#00D1FF"/>
</linearGradient>
</defs>
</svg>
