<svg width="42" height="42" viewBox="0 0 42 42" fill="none" xmlns="http://www.w3.org/2000/svg">
<path d="M42 21C42 32.598 32.598 42 21 42C9.40202 42 0 32.598 0 21C0 9.40202 9.40202 0 21 0C32.598 0 42 9.40202 42 21Z" fill="url(#paint0_linear_504_292)"/>
<path d="M29.4262 20.9222C29.4242 21.2522 29.3334 21.5778 29.1604 21.8752C28.9873 22.1727 28.7364 22.4345 28.4258 22.6417L20.4538 28.0849C19.9738 28.403 19.3955 28.6031 18.7847 28.6626C18.174 28.722 17.5553 28.6383 16.9992 28.4211C16.5159 28.2449 16.1042 27.9573 15.8131 27.5928C15.5221 27.2283 15.3641 26.8021 15.3579 26.3653L15.3579 15.479C15.3641 15.0422 15.5221 14.6161 15.8131 14.2516C16.1042 13.887 16.5159 13.5995 16.9992 13.4233C17.5553 13.206 18.174 13.1224 18.7847 13.1818C19.3955 13.2412 19.9738 13.4414 20.4538 13.7595L28.4258 19.2026C28.7364 19.4099 28.9873 19.6717 29.1604 19.9691C29.3334 20.2666 29.4242 20.5921 29.4262 20.9222Z" fill="url(#paint1_linear_504_292)"/>
<defs>
<linearGradient id="paint0_linear_504_292" x1="5.79851" y1="37.1418" x2="46.5448" y2="-4.85821" gradientUnits="userSpaceOnUse">
<stop stop-color="#5A5A5A"/>
<stop offset="1" stop-color="#2D2D2D"/>
</linearGradient>
<linearGradient id="paint1_linear_504_292" x1="27.7989" y1="26.5387" x2="12.4009" y2="12.9959" gradientUnits="userSpaceOnUse">
<stop stop-color="#B6B6B6"/>
<stop offset="1" stop-color="white"/>
</linearGradient>
</defs>
</svg>
