<svg width="36" height="40" viewBox="0 0 36 40" fill="none" xmlns="http://www.w3.org/2000/svg">
<path d="M1 1.97179C1.606 3.83576 1.28961 6.17467 1.28961 8.12646C1.28961 10.8079 1.28961 13.4893 1.28961 16.1707C1.28961 19.8897 1.48642 23.5147 1.85275 27.2023C2.22464 30.946 1.69173 34.812 1.86884 38.5759C1.94871 40.2733 6.0031 36.3509 6.47046 36.0024C7.16089 35.4876 8.00359 35.2724 8.75517 34.7607C10.1282 33.8259 11.4719 32.4677 13.0189 31.9533C16.1492 30.9124 18.6843 29.0218 21.4981 27.2383C22.4449 26.6382 23.6915 25.9858 24.7321 25.6367C25.8442 25.2635 26.5174 24.2002 27.58 23.6751C28.717 23.1131 29.7442 22.0033 30.7979 21.2456C31.4605 20.7691 33.7839 19.355 33.9675 18.6362C34.4498 16.7482 29.4109 15.2711 28.6419 14.857C26.4003 13.6498 24.0882 12.5623 21.7877 11.5097C17.5805 9.58466 13.4715 7.02087 9.39876 4.74319C8.0545 3.99142 6.82668 3.05282 5.4729 2.29572C4.75052 1.89173 3.39324 1.81863 3.02729 1" stroke="black" stroke-width="2" stroke-linecap="round"/>
<path d="M1.16056 6.07751C1.89811 5.33173 3.3065 5.47081 4.20231 5.39376C5.12443 5.31444 5.98016 5.33664 6.87606 5.37422C7.11432 5.38421 7.27563 5.12578 7.49706 5.04862C7.61625 5.00709 7.97956 4.96399 8.09506 5.04862C8.76229 5.53757 7.31522 6.90697 7.16356 7.05431C5.83823 8.3419 4.3302 9.35766 3.03506 10.688C2.46629 11.2722 1.55421 12.0831 1.20656 12.9021C1.1438 13.0499 0.887497 13.6917 1.05706 13.7877C1.85768 14.241 3.50198 13.1398 4.12756 12.8239C5.53868 12.1113 6.93926 11.3708 8.35956 10.6815C9.27467 10.2373 10.2288 10.0845 11.1598 9.71771C12.0872 9.3524 12.6962 9.45356 13.6726 9.35304C13.851 9.33466 14.4662 8.91711 14.6041 9.19024C14.7039 9.38818 14.8226 9.76394 14.8226 9.99772C14.8226 10.8671 14.817 11.5279 14.1786 12.1467C12.7847 13.4974 11.1114 14.3125 9.57856 15.4157C7.30783 17.0499 4.59804 18.3198 2.55781 20.3322C2.28697 20.5994 1.35994 22.1348 2.00581 22.5463C2.71115 22.9956 4.08255 22.7594 4.82331 22.6309C7.00091 22.2535 9.08009 20.8813 10.8378 19.4336C12.4363 18.117 13.8479 16.5847 15.5356 15.4027C16.3662 14.8209 17.419 13.6903 18.4336 13.5858C19.1652 13.5105 19.9302 13.5793 20.6646 13.5793C21.3125 13.5793 21.506 13.8245 21.9871 14.2826C22.512 14.7825 22.4418 15.4887 22.3091 16.2232C21.9772 18.0587 20.3695 18.9944 18.9396 19.6485C17.7774 20.18 16.5858 20.6894 15.3918 21.1202C13.7925 21.6971 12.1341 21.9917 10.5618 22.6765C8.53634 23.5588 6.78008 25.0363 4.92106 26.2711C3.88308 26.9606 2.72179 27.5291 1.75281 28.3419C1.45024 28.5958 1.20471 28.9751 1.16631 29.4099C1.04836 30.7458 2.0246 30.9144 2.98906 30.9272C5.06379 30.9547 7.10934 30.7506 9.17606 30.6928C9.83013 30.6745 10.5422 30.6724 11.1368 30.3151C11.8415 29.8916 12.2882 28.9718 12.8561 28.3615C14.3169 26.7914 16.0872 25.7885 17.2836 23.8943C17.7287 23.1895 18.1215 22.4712 18.7211 21.9146C19.3177 21.3608 20.0289 20.9902 20.6761 20.5211C21.5637 19.8777 22.3948 19.2604 23.3326 18.7107C24.3196 18.1322 25.4061 17.8263 26.4606 17.4474C27.3254 17.1366 29.0915 16.5516 28.9963 18.2223C28.9087 19.7608 27.3426 20.6867 26.2708 21.2309C24.6905 22.0331 22.9747 22.3572 21.4063 23.1845C20.335 23.7495 19.2918 24.3832 18.2438 25.0013C17.3861 25.5072 16.0368 26.313 15.0526 25.8479C13.5037 25.1158 12.666 23.0648 11.9016 21.4979C10.8253 19.2917 9.9368 16.9622 8.78506 14.8036C7.8287 13.0111 6.6324 11.4369 5.30056 9.99772C4.81484 9.47287 4.24437 9.07847 3.74231 8.57811C3.29666 8.13397 3.83979 9.2478 3.85731 9.28792C5.37226 12.7575 6.74416 16.1513 7.45106 19.9741C8.06222 23.2791 8.64333 26.7941 8.21006 30.1588C8.04672 31.4272 8.13083 32.7586 7.92831 34.0074C7.89468 34.2147 7.58551 35.4002 7.25556 34.8604C6.62967 33.8366 5.87893 32.5922 5.47306 31.4351C5.08683 30.3341 5.03447 29.0952 4.81756 27.9447C4.54566 26.5026 4.26223 25.0671 4.00681 23.6208C3.62713 21.4708 3.12082 19.3436 2.52906 17.2586C2.45453 16.996 2.47676 16.6371 2.37956 16.3925C2.35407 16.3283 2.10961 16.035 2.17256 16.0799C3.5515 17.0632 4.74539 18.425 6.04231 19.5378C7.68478 20.9469 9.41887 22.1831 11.3381 23.0477C12.8662 23.7362 14.5814 24.4363 16.2256 24.6887C17.9116 24.9477 17.8245 21.2254 17.7781 20.1955C17.6966 18.3901 17.4015 16.6291 17.1168 14.8557C16.8904 13.4452 16.833 12.0137 16.6453 10.5968C16.5865 10.1527 16.5821 9.71632 16.5821 9.26838C16.5821 9.23153 16.5878 8.75005 16.6108 8.77347C17.1427 9.31562 17.3363 10.5611 17.5136 11.2871C17.8915 12.835 18.2031 14.3935 18.6578 15.9171C19.1097 17.4311 19.5175 18.9174 19.8136 20.482C20.0051 21.4941 20.0905 22.7073 20.5611 23.6208C20.7833 24.0523 21.0379 24.1287 21.4466 24.1287" stroke="black" stroke-width="2" stroke-linecap="round"/>
</svg>
