<svg width="24" height="24" viewBox="0 0 24 24" fill="none" xmlns="http://www.w3.org/2000/svg">
<path d="M11.6146 10.6464C12.3803 10.6464 13.1288 10.4194 13.7655 9.99399C14.4021 9.56859 14.8983 8.96396 15.1913 8.25654C15.4844 7.54913 15.561 6.77071 15.4117 6.01973C15.2623 5.26874 14.8936 4.57891 14.3521 4.03748C13.8107 3.49605 13.1209 3.12734 12.3699 2.97795C11.6189 2.82857 10.8405 2.90524 10.1331 3.19826C9.42565 3.49128 8.82102 3.98749 8.39562 4.62415C7.97022 5.2608 7.74316 6.00931 7.74316 6.77501C7.74316 7.80178 8.15105 8.78649 8.87708 9.51253C9.60312 10.2386 10.5878 10.6464 11.6146 10.6464ZM11.6146 4.83929C11.9975 4.83929 12.3717 4.95281 12.69 5.16551C13.0084 5.37821 13.2565 5.68053 13.403 6.03424C13.5495 6.38794 13.5878 6.77715 13.5131 7.15265C13.4384 7.52814 13.2541 7.87305 12.9834 8.14377C12.7126 8.41448 12.3677 8.59884 11.9922 8.67353C11.6168 8.74822 11.2275 8.70989 10.8738 8.56338C10.5201 8.41687 10.2178 8.16876 10.0051 7.85043C9.79241 7.53211 9.67888 7.15786 9.67888 6.77501C9.67888 6.26162 9.88283 5.76926 10.2458 5.40625C10.6089 5.04323 11.1012 4.83929 11.6146 4.83929Z" fill="#F6F6F6"/>
<path d="M11.6144 12.5822C9.81753 12.5822 8.09428 13.296 6.82371 14.5666C5.55315 15.8371 4.83936 17.5604 4.83936 19.3572C4.83936 19.6139 4.94133 19.8601 5.12284 20.0416C5.30434 20.2231 5.55052 20.3251 5.80722 20.3251C6.06391 20.3251 6.31009 20.2231 6.4916 20.0416C6.6731 19.8601 6.77508 19.6139 6.77508 19.3572C6.77508 18.0738 7.28493 16.8429 8.19247 15.9353C9.10002 15.0278 10.3309 14.5179 11.6144 14.5179C12.8978 14.5179 14.1287 15.0278 15.0363 15.9353C15.9438 16.8429 16.4537 18.0738 16.4537 19.3572C16.4537 19.6139 16.5556 19.8601 16.7372 20.0416C16.9187 20.2231 17.1648 20.3251 17.4215 20.3251C17.6782 20.3251 17.9244 20.2231 18.1059 20.0416C18.2874 19.8601 18.3894 19.6139 18.3894 19.3572C18.3894 17.5604 17.6756 15.8371 16.405 14.5666C15.1345 13.296 13.4112 12.5822 11.6144 12.5822Z" fill="#F6F6F6"/>
</svg>
